<svg width="36" height="36" viewBox="0 0 36 36" fill="none" xmlns="http://www.w3.org/2000/svg">
<circle r="17" transform="matrix(-1 0 0 1 18 18)" stroke="white" stroke-width="2"/>
<path d="M20.8433 25.6316C21.7445 26.2704 22.9928 26.0578 23.6316 25.1567C24.2704 24.2555 24.0578 23.0072 23.1567 22.3684L20.8433 25.6316ZM14 18.3288L12.8913 16.6642C12.343 17.0294 12.0098 17.6411 12.0002 18.2997C11.9906 18.9583 12.306 19.5794 12.8433 19.9604L14 18.3288ZM23.1087 14.6645C24.028 14.0522 24.2769 12.8106 23.6645 11.8913C23.0522 10.972 21.8106 10.7231 20.8913 11.3355L23.1087 14.6645ZM23.1567 22.3684L15.1567 16.6971L12.8433 19.9604L20.8433 25.6316L23.1567 22.3684ZM15.1087 19.9933L23.1087 14.6645L20.8913 11.3355L12.8913 16.6642L15.1087 19.9933Z" fill="white"/>
</svg>
