<svg width="36" height="36" viewBox="0 0 36 36" fill="none" xmlns="http://www.w3.org/2000/svg">
<circle cx="18" cy="18" r="17" stroke="white" stroke-width="2"/>
<path d="M15.1567 11.3684C14.2555 10.7296 13.0072 10.9422 12.3684 11.8433C11.7296 12.7445 11.9422 13.9928 12.8433 14.6316L15.1567 11.3684ZM22 18.6712L23.1087 20.3358C23.657 19.9706 23.9902 19.3589 23.9998 18.7003C24.0094 18.0417 23.694 17.4206 23.1567 17.0396L22 18.6712ZM12.8913 22.3355C11.972 22.9478 11.7231 24.1894 12.3355 25.1087C12.9478 26.028 14.1894 26.2769 15.1087 25.6645L12.8913 22.3355ZM12.8433 14.6316L20.8433 20.3029L23.1567 17.0396L15.1567 11.3684L12.8433 14.6316ZM20.8913 17.0067L12.8913 22.3355L15.1087 25.6645L23.1087 20.3358L20.8913 17.0067Z" fill="white"/>
</svg>
